<?xml version="1.0" encoding="iso-8859-1"?>
<!-- Generator: Adobe Illustrator 16.0.0, SVG Export Plug-In . SVG Version: 6.00 Build 0)  -->
<!DOCTYPE svg PUBLIC "-//W3C//DTD SVG 1.1//EN" "http://www.w3.org/Graphics/SVG/1.1/DTD/svg11.dtd">
<svg version="1.1" id="Capa_1" xmlns="http://www.w3.org/2000/svg" xmlns:xlink="http://www.w3.org/1999/xlink" x="0px" y="0px"
	 width="79.536px" height="79.536px" viewBox="0 0 79.536 79.536" style="enable-background:new 0 0 79.536 79.536;"
	 xml:space="preserve">
<g>
	<path style="fill:#010002;" d="M43.413,18.32v54.288H54.34v4.742H25.202v-4.742h10.929V18.32H12.456v-4.745h23.675V2.186h7.282
		v11.39h23.675v4.745H43.413z M24.912,47.422c0,3.987-5.579,7.229-12.461,7.229C5.577,54.65,0,51.409,0,47.422L12.456,18.32
		L24.912,47.422z M22.849,47.422L12.456,23.146L2.069,47.422H22.849z M79.536,47.422c0,3.987-5.577,7.229-12.459,7.229
		c-6.876,0-12.458-3.241-12.458-7.229L67.077,18.32L79.536,47.422z M77.465,47.422L67.077,23.146L56.69,47.422H77.465z"/>
</g>
<g>
</g>
<g>
</g>
<g>
</g>
<g>
</g>
<g>
</g>
<g>
</g>
<g>
</g>
<g>
</g>
<g>
</g>
<g>
</g>
<g>
</g>
<g>
</g>
<g>
</g>
<g>
</g>
<g>
</g>
</svg>
